<svg xmlns="http://www.w3.org/2000/svg" width="800" height="600" viewBox="0 0 800 600">
  <defs>
    <linearGradient id="bangkokGrad" x1="0%" y1="0%" x2="100%" y2="100%">
      <stop offset="0%" style="stop-color:#f59e0b"/>
      <stop offset="50%" style="stop-color:#d97706"/>
      <stop offset="100%" style="stop-color:#b45309"/>
    </linearGradient>
  </defs>
  <rect width="800" height="600" fill="url(#bangkokGrad)"/>
  <circle cx="650" cy="100" r="70" fill="#fef3c7" opacity="0.3"/>
  <circle cx="650" cy="100" r="50" fill="#fbbf24"/>
  <text x="400" y="280" text-anchor="middle" font-family="Georgia, serif" font-size="48" font-weight="600" fill="white">Bangkok</text>
  <text x="400" y="340" text-anchor="middle" font-family="Manrope, sans-serif" font-size="20" fill="#fef3c7">Thailand · Southeast Asia</text>
  <g fill="#78350f" opacity="0.8">
    <path d="M200,500 L200,300 Q200,250 250,250 L550,250 Q600,250 600,300 L600,500 Z"/>
    <path d="M300,250 L300,180 Q300,130 350,130 L450,130 Q500,130 500,180 L500,250" fill="#92400e"/>
    <ellipse cx="400" cy="130" rx="80" ry="30" fill="#b45309"/>
  </g>
  <g fill="#fbbf24" opacity="0.6">
    <circle cx="250" cy="450" r="5"/>
    <circle cx="350" cy="420" r="5"/>
    <circle cx="450" cy="420" r="5"/>
    <circle cx="550" cy="450" r="5"/>
  </g>
</svg>